<mxfile host="app.diagrams.net" modified="2022-05-08T16:26:30.573Z" agent="5.0 (Windows NT 10.0; Win64; x64) AppleWebKit/537.36 (KHTML, like Gecko) Chrome/101.0.4951.54 Safari/537.36" etag="nVyi8m5TEGs73Os-lhV1" version="18.0.2" type="github">
  <diagram id="C5RBs43oDa-KdzZeNtuy" name="Page-1">
    <mxGraphModel dx="1038" dy="521" grid="1" gridSize="10" guides="1" tooltips="1" connect="1" arrows="1" fold="1" page="1" pageScale="1" pageWidth="827" pageHeight="1169" math="0" shadow="0">
      <root>
        <mxCell id="WIyWlLk6GJQsqaUBKTNV-0" />
        <mxCell id="WIyWlLk6GJQsqaUBKTNV-1" parent="WIyWlLk6GJQsqaUBKTNV-0" />
        <mxCell id="gkxl-RQaYJR8FBmynC2Y-2" value="" style="edgeStyle=orthogonalEdgeStyle;rounded=0;orthogonalLoop=1;jettySize=auto;html=1;fontSize=18;" edge="1" parent="WIyWlLk6GJQsqaUBKTNV-1" source="gkxl-RQaYJR8FBmynC2Y-0" target="gkxl-RQaYJR8FBmynC2Y-1">
          <mxGeometry relative="1" as="geometry" />
        </mxCell>
        <mxCell id="gkxl-RQaYJR8FBmynC2Y-0" value="&lt;font style=&quot;font-size: 18px;&quot;&gt;Start&lt;/font&gt;" style="ellipse;whiteSpace=wrap;html=1;" vertex="1" parent="WIyWlLk6GJQsqaUBKTNV-1">
          <mxGeometry x="340" y="10" width="106" height="50" as="geometry" />
        </mxCell>
        <mxCell id="gkxl-RQaYJR8FBmynC2Y-4" value="" style="edgeStyle=orthogonalEdgeStyle;rounded=0;orthogonalLoop=1;jettySize=auto;html=1;fontSize=18;" edge="1" parent="WIyWlLk6GJQsqaUBKTNV-1" source="gkxl-RQaYJR8FBmynC2Y-1" target="gkxl-RQaYJR8FBmynC2Y-3">
          <mxGeometry relative="1" as="geometry" />
        </mxCell>
        <mxCell id="gkxl-RQaYJR8FBmynC2Y-1" value="Greeting user" style="whiteSpace=wrap;html=1;" vertex="1" parent="WIyWlLk6GJQsqaUBKTNV-1">
          <mxGeometry x="348" y="90" width="90" height="50" as="geometry" />
        </mxCell>
        <mxCell id="gkxl-RQaYJR8FBmynC2Y-6" value="" style="edgeStyle=orthogonalEdgeStyle;rounded=0;orthogonalLoop=1;jettySize=auto;html=1;fontSize=18;" edge="1" parent="WIyWlLk6GJQsqaUBKTNV-1" source="gkxl-RQaYJR8FBmynC2Y-3" target="gkxl-RQaYJR8FBmynC2Y-5">
          <mxGeometry relative="1" as="geometry" />
        </mxCell>
        <mxCell id="gkxl-RQaYJR8FBmynC2Y-3" value="Ask user to enter height" style="shape=parallelogram;perimeter=parallelogramPerimeter;whiteSpace=wrap;html=1;fixedSize=1;" vertex="1" parent="WIyWlLk6GJQsqaUBKTNV-1">
          <mxGeometry x="333" y="170" width="120" height="60" as="geometry" />
        </mxCell>
        <mxCell id="gkxl-RQaYJR8FBmynC2Y-8" value="" style="edgeStyle=orthogonalEdgeStyle;rounded=0;orthogonalLoop=1;jettySize=auto;html=1;fontSize=18;" edge="1" parent="WIyWlLk6GJQsqaUBKTNV-1" source="gkxl-RQaYJR8FBmynC2Y-5" target="gkxl-RQaYJR8FBmynC2Y-7">
          <mxGeometry relative="1" as="geometry" />
        </mxCell>
        <mxCell id="gkxl-RQaYJR8FBmynC2Y-13" value="" style="edgeStyle=orthogonalEdgeStyle;rounded=0;orthogonalLoop=1;jettySize=auto;html=1;fontSize=12;" edge="1" parent="WIyWlLk6GJQsqaUBKTNV-1" source="gkxl-RQaYJR8FBmynC2Y-5" target="gkxl-RQaYJR8FBmynC2Y-12">
          <mxGeometry relative="1" as="geometry" />
        </mxCell>
        <mxCell id="gkxl-RQaYJR8FBmynC2Y-5" value="if height&amp;gt;=120" style="rhombus;whiteSpace=wrap;html=1;" vertex="1" parent="WIyWlLk6GJQsqaUBKTNV-1">
          <mxGeometry x="344.5" y="260" width="97" height="80" as="geometry" />
        </mxCell>
        <mxCell id="gkxl-RQaYJR8FBmynC2Y-10" value="" style="edgeStyle=orthogonalEdgeStyle;rounded=0;orthogonalLoop=1;jettySize=auto;html=1;fontSize=18;" edge="1" parent="WIyWlLk6GJQsqaUBKTNV-1" source="gkxl-RQaYJR8FBmynC2Y-7" target="gkxl-RQaYJR8FBmynC2Y-9">
          <mxGeometry relative="1" as="geometry" />
        </mxCell>
        <mxCell id="gkxl-RQaYJR8FBmynC2Y-7" value="You can not ride" style="whiteSpace=wrap;html=1;" vertex="1" parent="WIyWlLk6GJQsqaUBKTNV-1">
          <mxGeometry x="210" y="270" width="66" height="60" as="geometry" />
        </mxCell>
        <mxCell id="gkxl-RQaYJR8FBmynC2Y-9" value="&lt;font style=&quot;font-size: 18px;&quot;&gt;Stop&lt;/font&gt;" style="ellipse;whiteSpace=wrap;html=1;" vertex="1" parent="WIyWlLk6GJQsqaUBKTNV-1">
          <mxGeometry x="90" y="270" width="97" height="60" as="geometry" />
        </mxCell>
        <mxCell id="gkxl-RQaYJR8FBmynC2Y-11" value="&lt;font style=&quot;font-size: 12px;&quot;&gt;False&lt;/font&gt;" style="text;html=1;align=center;verticalAlign=middle;resizable=0;points=[];autosize=1;strokeColor=none;fillColor=none;fontSize=18;" vertex="1" parent="WIyWlLk6GJQsqaUBKTNV-1">
          <mxGeometry x="300" y="265" width="40" height="30" as="geometry" />
        </mxCell>
        <mxCell id="gkxl-RQaYJR8FBmynC2Y-15" value="" style="edgeStyle=orthogonalEdgeStyle;rounded=0;orthogonalLoop=1;jettySize=auto;html=1;fontSize=12;" edge="1" parent="WIyWlLk6GJQsqaUBKTNV-1" source="gkxl-RQaYJR8FBmynC2Y-12" target="gkxl-RQaYJR8FBmynC2Y-14">
          <mxGeometry relative="1" as="geometry" />
        </mxCell>
        <mxCell id="gkxl-RQaYJR8FBmynC2Y-12" value="You can ride" style="whiteSpace=wrap;html=1;" vertex="1" parent="WIyWlLk6GJQsqaUBKTNV-1">
          <mxGeometry x="480" y="280" width="70" height="40" as="geometry" />
        </mxCell>
        <mxCell id="gkxl-RQaYJR8FBmynC2Y-17" value="" style="edgeStyle=orthogonalEdgeStyle;rounded=0;orthogonalLoop=1;jettySize=auto;html=1;fontSize=12;" edge="1" parent="WIyWlLk6GJQsqaUBKTNV-1" source="gkxl-RQaYJR8FBmynC2Y-14" target="gkxl-RQaYJR8FBmynC2Y-16">
          <mxGeometry relative="1" as="geometry" />
        </mxCell>
        <mxCell id="gkxl-RQaYJR8FBmynC2Y-14" value="ask user to&amp;nbsp; enter&lt;br&gt;age" style="shape=parallelogram;perimeter=parallelogramPerimeter;whiteSpace=wrap;html=1;fixedSize=1;" vertex="1" parent="WIyWlLk6GJQsqaUBKTNV-1">
          <mxGeometry x="455" y="350" width="120" height="60" as="geometry" />
        </mxCell>
        <mxCell id="gkxl-RQaYJR8FBmynC2Y-19" value="" style="edgeStyle=orthogonalEdgeStyle;rounded=0;orthogonalLoop=1;jettySize=auto;html=1;fontSize=12;" edge="1" parent="WIyWlLk6GJQsqaUBKTNV-1" source="gkxl-RQaYJR8FBmynC2Y-16" target="gkxl-RQaYJR8FBmynC2Y-18">
          <mxGeometry relative="1" as="geometry" />
        </mxCell>
        <mxCell id="gkxl-RQaYJR8FBmynC2Y-21" value="" style="edgeStyle=orthogonalEdgeStyle;rounded=0;orthogonalLoop=1;jettySize=auto;html=1;fontSize=12;" edge="1" parent="WIyWlLk6GJQsqaUBKTNV-1" source="gkxl-RQaYJR8FBmynC2Y-16" target="gkxl-RQaYJR8FBmynC2Y-20">
          <mxGeometry relative="1" as="geometry" />
        </mxCell>
        <mxCell id="gkxl-RQaYJR8FBmynC2Y-16" value="if age &amp;lt; 12" style="rhombus;whiteSpace=wrap;html=1;" vertex="1" parent="WIyWlLk6GJQsqaUBKTNV-1">
          <mxGeometry x="475" y="450" width="80" height="80" as="geometry" />
        </mxCell>
        <mxCell id="gkxl-RQaYJR8FBmynC2Y-41" style="edgeStyle=orthogonalEdgeStyle;rounded=0;orthogonalLoop=1;jettySize=auto;html=1;entryX=1;entryY=0.5;entryDx=0;entryDy=0;fontSize=12;" edge="1" parent="WIyWlLk6GJQsqaUBKTNV-1" source="gkxl-RQaYJR8FBmynC2Y-18" target="gkxl-RQaYJR8FBmynC2Y-40">
          <mxGeometry relative="1" as="geometry">
            <Array as="points">
              <mxPoint x="680" y="720" />
            </Array>
          </mxGeometry>
        </mxCell>
        <mxCell id="gkxl-RQaYJR8FBmynC2Y-18" value="bill=5&lt;br&gt;&quot;child ticket is 5$&quot;" style="whiteSpace=wrap;html=1;" vertex="1" parent="WIyWlLk6GJQsqaUBKTNV-1">
          <mxGeometry x="615" y="460" width="120" height="60" as="geometry" />
        </mxCell>
        <mxCell id="gkxl-RQaYJR8FBmynC2Y-25" value="" style="edgeStyle=orthogonalEdgeStyle;rounded=0;orthogonalLoop=1;jettySize=auto;html=1;fontSize=12;" edge="1" parent="WIyWlLk6GJQsqaUBKTNV-1" source="gkxl-RQaYJR8FBmynC2Y-20" target="gkxl-RQaYJR8FBmynC2Y-24">
          <mxGeometry relative="1" as="geometry" />
        </mxCell>
        <mxCell id="gkxl-RQaYJR8FBmynC2Y-33" value="" style="edgeStyle=orthogonalEdgeStyle;rounded=0;orthogonalLoop=1;jettySize=auto;html=1;fontSize=12;" edge="1" parent="WIyWlLk6GJQsqaUBKTNV-1" source="gkxl-RQaYJR8FBmynC2Y-20" target="gkxl-RQaYJR8FBmynC2Y-32">
          <mxGeometry relative="1" as="geometry" />
        </mxCell>
        <mxCell id="gkxl-RQaYJR8FBmynC2Y-20" value="if age &amp;lt; =18" style="rhombus;whiteSpace=wrap;html=1;" vertex="1" parent="WIyWlLk6GJQsqaUBKTNV-1">
          <mxGeometry x="340" y="450" width="80" height="80" as="geometry" />
        </mxCell>
        <mxCell id="gkxl-RQaYJR8FBmynC2Y-22" value="True" style="text;html=1;align=center;verticalAlign=middle;resizable=0;points=[];autosize=1;strokeColor=none;fillColor=none;fontSize=12;" vertex="1" parent="WIyWlLk6GJQsqaUBKTNV-1">
          <mxGeometry x="555" y="470" width="40" height="20" as="geometry" />
        </mxCell>
        <mxCell id="gkxl-RQaYJR8FBmynC2Y-23" value="False" style="text;html=1;align=center;verticalAlign=middle;resizable=0;points=[];autosize=1;strokeColor=none;fillColor=none;fontSize=12;" vertex="1" parent="WIyWlLk6GJQsqaUBKTNV-1">
          <mxGeometry x="430" y="470" width="40" height="20" as="geometry" />
        </mxCell>
        <mxCell id="gkxl-RQaYJR8FBmynC2Y-36" value="" style="edgeStyle=orthogonalEdgeStyle;rounded=0;orthogonalLoop=1;jettySize=auto;html=1;fontSize=12;" edge="1" parent="WIyWlLk6GJQsqaUBKTNV-1" source="gkxl-RQaYJR8FBmynC2Y-24" target="gkxl-RQaYJR8FBmynC2Y-35">
          <mxGeometry relative="1" as="geometry" />
        </mxCell>
        <mxCell id="gkxl-RQaYJR8FBmynC2Y-39" value="" style="edgeStyle=orthogonalEdgeStyle;rounded=0;orthogonalLoop=1;jettySize=auto;html=1;fontSize=12;" edge="1" parent="WIyWlLk6GJQsqaUBKTNV-1" source="gkxl-RQaYJR8FBmynC2Y-24" target="gkxl-RQaYJR8FBmynC2Y-38">
          <mxGeometry relative="1" as="geometry" />
        </mxCell>
        <mxCell id="gkxl-RQaYJR8FBmynC2Y-24" value="if&amp;nbsp; age &amp;gt;=45&lt;br&gt;and age &amp;lt;=55" style="rhombus;whiteSpace=wrap;html=1;" vertex="1" parent="WIyWlLk6GJQsqaUBKTNV-1">
          <mxGeometry x="315" y="585" width="130" height="80" as="geometry" />
        </mxCell>
        <mxCell id="gkxl-RQaYJR8FBmynC2Y-29" value="False" style="text;html=1;align=center;verticalAlign=middle;resizable=0;points=[];autosize=1;strokeColor=none;fillColor=none;fontSize=12;rotation=90;" vertex="1" parent="WIyWlLk6GJQsqaUBKTNV-1">
          <mxGeometry x="373" y="540" width="40" height="20" as="geometry" />
        </mxCell>
        <mxCell id="gkxl-RQaYJR8FBmynC2Y-42" style="edgeStyle=orthogonalEdgeStyle;rounded=0;orthogonalLoop=1;jettySize=auto;html=1;entryX=0;entryY=0.5;entryDx=0;entryDy=0;fontSize=12;" edge="1" parent="WIyWlLk6GJQsqaUBKTNV-1" source="gkxl-RQaYJR8FBmynC2Y-32" target="gkxl-RQaYJR8FBmynC2Y-40">
          <mxGeometry relative="1" as="geometry">
            <Array as="points">
              <mxPoint x="50" y="490" />
              <mxPoint x="50" y="720" />
            </Array>
          </mxGeometry>
        </mxCell>
        <mxCell id="gkxl-RQaYJR8FBmynC2Y-32" value="bill=7&lt;br&gt;&quot;youth ticket=7$&quot;" style="whiteSpace=wrap;html=1;" vertex="1" parent="WIyWlLk6GJQsqaUBKTNV-1">
          <mxGeometry x="187" y="465" width="100" height="50" as="geometry" />
        </mxCell>
        <mxCell id="gkxl-RQaYJR8FBmynC2Y-34" value="True" style="text;html=1;align=center;verticalAlign=middle;resizable=0;points=[];autosize=1;strokeColor=none;fillColor=none;fontSize=12;" vertex="1" parent="WIyWlLk6GJQsqaUBKTNV-1">
          <mxGeometry x="290" y="470" width="40" height="20" as="geometry" />
        </mxCell>
        <mxCell id="gkxl-RQaYJR8FBmynC2Y-44" style="edgeStyle=orthogonalEdgeStyle;rounded=0;orthogonalLoop=1;jettySize=auto;html=1;entryX=1;entryY=0.25;entryDx=0;entryDy=0;fontSize=12;" edge="1" parent="WIyWlLk6GJQsqaUBKTNV-1" source="gkxl-RQaYJR8FBmynC2Y-35" target="gkxl-RQaYJR8FBmynC2Y-40">
          <mxGeometry relative="1" as="geometry">
            <Array as="points">
              <mxPoint x="540" y="706" />
            </Array>
          </mxGeometry>
        </mxCell>
        <mxCell id="gkxl-RQaYJR8FBmynC2Y-35" value="&quot;Have a free ride&amp;nbsp;&lt;br&gt;with us&quot;" style="whiteSpace=wrap;html=1;" vertex="1" parent="WIyWlLk6GJQsqaUBKTNV-1">
          <mxGeometry x="495" y="597.5" width="100" height="55" as="geometry" />
        </mxCell>
        <mxCell id="gkxl-RQaYJR8FBmynC2Y-37" value="True" style="text;html=1;align=center;verticalAlign=middle;resizable=0;points=[];autosize=1;strokeColor=none;fillColor=none;fontSize=12;" vertex="1" parent="WIyWlLk6GJQsqaUBKTNV-1">
          <mxGeometry x="450" y="610" width="40" height="20" as="geometry" />
        </mxCell>
        <mxCell id="gkxl-RQaYJR8FBmynC2Y-43" style="edgeStyle=orthogonalEdgeStyle;rounded=0;orthogonalLoop=1;jettySize=auto;html=1;fontSize=12;" edge="1" parent="WIyWlLk6GJQsqaUBKTNV-1" source="gkxl-RQaYJR8FBmynC2Y-38" target="gkxl-RQaYJR8FBmynC2Y-40">
          <mxGeometry relative="1" as="geometry">
            <Array as="points">
              <mxPoint x="180" y="710" />
            </Array>
          </mxGeometry>
        </mxCell>
        <mxCell id="gkxl-RQaYJR8FBmynC2Y-38" value="bill= 12&lt;br&gt;&quot;adult ticket is 12" style="whiteSpace=wrap;html=1;" vertex="1" parent="WIyWlLk6GJQsqaUBKTNV-1">
          <mxGeometry x="130" y="595" width="100" height="60" as="geometry" />
        </mxCell>
        <mxCell id="gkxl-RQaYJR8FBmynC2Y-46" value="" style="edgeStyle=orthogonalEdgeStyle;rounded=0;orthogonalLoop=1;jettySize=auto;html=1;fontSize=12;" edge="1" parent="WIyWlLk6GJQsqaUBKTNV-1" source="gkxl-RQaYJR8FBmynC2Y-40" target="gkxl-RQaYJR8FBmynC2Y-45">
          <mxGeometry relative="1" as="geometry" />
        </mxCell>
        <mxCell id="gkxl-RQaYJR8FBmynC2Y-40" value="ask want photo&amp;nbsp;&lt;br&gt;or not" style="shape=parallelogram;perimeter=parallelogramPerimeter;whiteSpace=wrap;html=1;fixedSize=1;fontSize=12;" vertex="1" parent="WIyWlLk6GJQsqaUBKTNV-1">
          <mxGeometry x="321.5" y="690" width="120" height="60" as="geometry" />
        </mxCell>
        <mxCell id="gkxl-RQaYJR8FBmynC2Y-48" value="" style="edgeStyle=orthogonalEdgeStyle;rounded=0;orthogonalLoop=1;jettySize=auto;html=1;fontSize=12;" edge="1" parent="WIyWlLk6GJQsqaUBKTNV-1" source="gkxl-RQaYJR8FBmynC2Y-45" target="gkxl-RQaYJR8FBmynC2Y-47">
          <mxGeometry relative="1" as="geometry" />
        </mxCell>
        <mxCell id="gkxl-RQaYJR8FBmynC2Y-50" value="" style="edgeStyle=orthogonalEdgeStyle;rounded=0;orthogonalLoop=1;jettySize=auto;html=1;fontSize=12;" edge="1" parent="WIyWlLk6GJQsqaUBKTNV-1" source="gkxl-RQaYJR8FBmynC2Y-45" target="gkxl-RQaYJR8FBmynC2Y-49">
          <mxGeometry relative="1" as="geometry" />
        </mxCell>
        <mxCell id="gkxl-RQaYJR8FBmynC2Y-45" value="if yes" style="rhombus;whiteSpace=wrap;html=1;" vertex="1" parent="WIyWlLk6GJQsqaUBKTNV-1">
          <mxGeometry x="341.5" y="780" width="80" height="80" as="geometry" />
        </mxCell>
        <mxCell id="gkxl-RQaYJR8FBmynC2Y-54" value="" style="edgeStyle=orthogonalEdgeStyle;rounded=0;orthogonalLoop=1;jettySize=auto;html=1;fontSize=12;" edge="1" parent="WIyWlLk6GJQsqaUBKTNV-1" source="gkxl-RQaYJR8FBmynC2Y-47" target="gkxl-RQaYJR8FBmynC2Y-53">
          <mxGeometry relative="1" as="geometry">
            <Array as="points">
              <mxPoint x="520" y="940" />
            </Array>
          </mxGeometry>
        </mxCell>
        <mxCell id="gkxl-RQaYJR8FBmynC2Y-47" value="bill +=3" style="whiteSpace=wrap;html=1;" vertex="1" parent="WIyWlLk6GJQsqaUBKTNV-1">
          <mxGeometry x="470" y="790" width="68.5" height="60" as="geometry" />
        </mxCell>
        <mxCell id="gkxl-RQaYJR8FBmynC2Y-55" style="edgeStyle=orthogonalEdgeStyle;rounded=0;orthogonalLoop=1;jettySize=auto;html=1;entryX=0;entryY=0.5;entryDx=0;entryDy=0;fontSize=12;" edge="1" parent="WIyWlLk6GJQsqaUBKTNV-1" source="gkxl-RQaYJR8FBmynC2Y-49" target="gkxl-RQaYJR8FBmynC2Y-53">
          <mxGeometry relative="1" as="geometry" />
        </mxCell>
        <mxCell id="gkxl-RQaYJR8FBmynC2Y-49" value="bill" style="whiteSpace=wrap;html=1;" vertex="1" parent="WIyWlLk6GJQsqaUBKTNV-1">
          <mxGeometry x="230" y="790" width="70" height="60" as="geometry" />
        </mxCell>
        <mxCell id="gkxl-RQaYJR8FBmynC2Y-51" value="True" style="text;html=1;align=center;verticalAlign=middle;resizable=0;points=[];autosize=1;strokeColor=none;fillColor=none;fontSize=12;" vertex="1" parent="WIyWlLk6GJQsqaUBKTNV-1">
          <mxGeometry x="415" y="800" width="40" height="20" as="geometry" />
        </mxCell>
        <mxCell id="gkxl-RQaYJR8FBmynC2Y-52" value="False" style="text;html=1;align=center;verticalAlign=middle;resizable=0;points=[];autosize=1;strokeColor=none;fillColor=none;fontSize=12;" vertex="1" parent="WIyWlLk6GJQsqaUBKTNV-1">
          <mxGeometry x="300" y="800" width="40" height="20" as="geometry" />
        </mxCell>
        <mxCell id="gkxl-RQaYJR8FBmynC2Y-57" value="" style="edgeStyle=orthogonalEdgeStyle;rounded=0;orthogonalLoop=1;jettySize=auto;html=1;fontSize=12;" edge="1" parent="WIyWlLk6GJQsqaUBKTNV-1" source="gkxl-RQaYJR8FBmynC2Y-53" target="gkxl-RQaYJR8FBmynC2Y-56">
          <mxGeometry relative="1" as="geometry" />
        </mxCell>
        <mxCell id="gkxl-RQaYJR8FBmynC2Y-53" value="final bill" style="whiteSpace=wrap;html=1;" vertex="1" parent="WIyWlLk6GJQsqaUBKTNV-1">
          <mxGeometry x="300" y="910" width="120" height="60" as="geometry" />
        </mxCell>
        <mxCell id="gkxl-RQaYJR8FBmynC2Y-56" value="STOP" style="ellipse;whiteSpace=wrap;html=1;" vertex="1" parent="WIyWlLk6GJQsqaUBKTNV-1">
          <mxGeometry x="300" y="1000" width="120" height="60" as="geometry" />
        </mxCell>
      </root>
    </mxGraphModel>
  </diagram>
</mxfile>
